# xmcd
#
# Track frame offsets:
#	150
#	10267
#	22775
#	32152
#	40800
#	52247
#	64057
#	76875
#	86645
#	97747
#	108505
#	117772
#	129335
#	140310
#	150665
#	159262
#	169747
#	177155
#	188197
#	204537
#	214627
#	224940
#
# Disc length: 3127 seconds
#
# Revision: 1
# Processed by: cddbd v1.5PL3 Copyright (c) Steve Scherf et al.
# Submitted via: CDex 1.50Beta5
#
DISCID=250c3516
DTITLE=Billy Lee Riley - Rock With Me Baby
DYEAR=1900
DGENRE=Blues
TTITLE0=Rock With Me Baby
TTITLE1=Trouble Bound
TTITLE2=Flyin' Saucer Rock N' Roll
TTITLE3=I Want You Baby
TTITLE4=Red Hot
TTITLE5=Pearly Lee
TTITLE6=Wouldn't You Know
TTITLE7=Baby Please Don't Go
TTITLE8=Dance With Me Honey (Rock With Me Baby No. 2)
TTITLE9=Open The Door Richard
TTITLE10=That's Right
TTITLE11=Searchin'
TTITLE12=College Man
TTITLE13=Down By The Riverside
TTITLE14=No Name Girl
TTITLE15=Swannee River Rock
TTITLE16=Saturday Night Fish Fry (They Was Rockin')
TTITLE17=Dark Muddy Bottom
TTITLE18=When A Man Gets The Blues
TTITLE19=Betty And Dupree
TTITLE20=(Come Back Baby) One More Time
TTITLE21=Got The Water Boiling
EXTD=
EXTT0=
EXTT1=
EXTT2=
EXTT3=
EXTT4=
EXTT5=
EXTT6=
EXTT7=
EXTT8=
EXTT9=
EXTT10=
EXTT11=
EXTT12=
EXTT13=
EXTT14=
EXTT15=
EXTT16=
EXTT17=
EXTT18=
EXTT19=
EXTT20=
EXTT21=
PLAYORDER=
